<svg id="visual" viewBox="0 0 960 540" width="960" height="540" xmlns="http://www.w3.org/2000/svg" xmlns:xlink="http://www.w3.org/1999/xlink" version="1.1"><g stroke-width="1" stroke-linejoin="bevel"><path d="M459.7 237L389.7 199L333 304Z" fill="#00101c" stroke="#00101c"></path><path d="M333 304L451.7 354L459.7 237Z" fill="#205a7a" stroke="#205a7a"></path><path d="M333 304L355 375L451.7 354Z" fill="#19435d" stroke="#19435d"></path><path d="M440.7 73L352 140L389.7 199Z" fill="#081a28" stroke="#081a28"></path><path d="M389.7 199L352 140L333 304Z" fill="#112e42" stroke="#112e42"></path><path d="M434.7 453L524.3 351L451.7 354Z" fill="#081a28" stroke="#081a28"></path><path d="M451.7 354L524.3 351L459.7 237Z" fill="#081a28" stroke="#081a28"></path><path d="M524.3 351L570.3 260L459.7 237Z" fill="#205a7a" stroke="#205a7a"></path><path d="M459.7 237L440.7 73L389.7 199Z" fill="#00101c" stroke="#00101c"></path><path d="M570.3 260L554.3 191L459.7 237Z" fill="#112e42" stroke="#112e42"></path><path d="M205.3 246L228.3 350L333 304Z" fill="#246688" stroke="#246688"></path><path d="M333 304L228.3 350L355 375Z" fill="#15384f" stroke="#15384f"></path><path d="M292 468L434.7 453L355 375Z" fill="#112e42" stroke="#112e42"></path><path d="M355 375L434.7 453L451.7 354Z" fill="#19435d" stroke="#19435d"></path><path d="M352 140L205.3 246L333 304Z" fill="#19435d" stroke="#19435d"></path><path d="M404.7 0L297 104L352 140Z" fill="#277297" stroke="#277297"></path><path d="M352 140L250.3 119L205.3 246Z" fill="#246688" stroke="#246688"></path><path d="M554.3 191L440.7 73L459.7 237Z" fill="#081a28" stroke="#081a28"></path><path d="M297 104L250.3 119L352 140Z" fill="#081a28" stroke="#081a28"></path><path d="M232.3 428L292 468L355 375Z" fill="#19435d" stroke="#19435d"></path><path d="M524.3 351L614 322L570.3 260Z" fill="#1d4e6b" stroke="#1d4e6b"></path><path d="M570.3 260L651 219L554.3 191Z" fill="#277297" stroke="#277297"></path><path d="M608 462L614 322L524.3 351Z" fill="#297ea6" stroke="#297ea6"></path><path d="M614 322L623 270L570.3 260Z" fill="#00101c" stroke="#00101c"></path><path d="M250.3 119L200.3 155L205.3 246Z" fill="#0c2435" stroke="#0c2435"></path><path d="M228.3 350L232.3 428L355 375Z" fill="#19435d" stroke="#19435d"></path><path d="M87.7 392L232.3 428L228.3 350Z" fill="#277297" stroke="#277297"></path><path d="M637 55L518.3 71L554.3 191Z" fill="#00101c" stroke="#00101c"></path><path d="M554.3 191L518.3 71L440.7 73Z" fill="#112e42" stroke="#112e42"></path><path d="M509.3 540L552.3 460L434.7 453Z" fill="#19435d" stroke="#19435d"></path><path d="M434.7 453L552.3 460L524.3 351Z" fill="#277297" stroke="#277297"></path><path d="M708.7 185L651 219L777.7 277Z" fill="#205a7a" stroke="#205a7a"></path><path d="M623 270L651 219L570.3 260Z" fill="#19435d" stroke="#19435d"></path><path d="M200.3 155L132.7 280L205.3 246Z" fill="#246688" stroke="#246688"></path><path d="M205.3 246L132.7 280L228.3 350Z" fill="#277297" stroke="#277297"></path><path d="M538.3 0L404.7 0L440.7 73Z" fill="#00101c" stroke="#00101c"></path><path d="M440.7 73L404.7 0L352 140Z" fill="#0c2435" stroke="#0c2435"></path><path d="M297 104L286 0L250.3 119Z" fill="#19435d" stroke="#19435d"></path><path d="M250.3 119L133.7 125L200.3 155Z" fill="#277297" stroke="#277297"></path><path d="M295 540L456.7 540L434.7 453Z" fill="#112e42" stroke="#112e42"></path><path d="M509.3 540L608 462L552.3 460Z" fill="#0c2435" stroke="#0c2435"></path><path d="M552.3 460L608 462L524.3 351Z" fill="#297ea6" stroke="#297ea6"></path><path d="M777.7 277L651 219L623 270Z" fill="#112e42" stroke="#112e42"></path><path d="M214.3 540L295 540L292 468Z" fill="#1d4e6b" stroke="#1d4e6b"></path><path d="M292 468L295 540L434.7 453Z" fill="#277297" stroke="#277297"></path><path d="M214.3 540L292 468L232.3 428Z" fill="#246688" stroke="#246688"></path><path d="M404.7 0L286 0L297 104Z" fill="#15384f" stroke="#15384f"></path><path d="M456.7 540L509.3 540L434.7 453Z" fill="#00101c" stroke="#00101c"></path><path d="M183.3 0L133.7 125L250.3 119Z" fill="#15384f" stroke="#15384f"></path><path d="M200.3 155L133.7 125L132.7 280Z" fill="#246688" stroke="#246688"></path><path d="M600 0L538.3 0L518.3 71Z" fill="#19435d" stroke="#19435d"></path><path d="M518.3 71L538.3 0L440.7 73Z" fill="#205a7a" stroke="#205a7a"></path><path d="M651 219L637 55L554.3 191Z" fill="#1d4e6b" stroke="#1d4e6b"></path><path d="M744.7 356L623 270L614 322Z" fill="#081a28" stroke="#081a28"></path><path d="M651 219L708.7 185L637 55Z" fill="#0c2435" stroke="#0c2435"></path><path d="M120.7 485L214.3 540L232.3 428Z" fill="#277297" stroke="#277297"></path><path d="M0 303L87.7 392L132.7 280Z" fill="#15384f" stroke="#15384f"></path><path d="M132.7 280L87.7 392L228.3 350Z" fill="#205a7a" stroke="#205a7a"></path><path d="M637 55L600 0L518.3 71Z" fill="#246688" stroke="#246688"></path><path d="M286 0L183.3 0L250.3 119Z" fill="#0c2435" stroke="#0c2435"></path><path d="M0 112L66.7 165L133.7 125Z" fill="#112e42" stroke="#112e42"></path><path d="M133.7 125L66.7 165L132.7 280Z" fill="#00101c" stroke="#00101c"></path><path d="M87.7 392L120.7 485L232.3 428Z" fill="#15384f" stroke="#15384f"></path><path d="M745.7 413L744.7 356L614 322Z" fill="#205a7a" stroke="#205a7a"></path><path d="M745.7 413L614 322L608 462Z" fill="#112e42" stroke="#112e42"></path><path d="M509.3 540L647 540L608 462Z" fill="#081a28" stroke="#081a28"></path><path d="M647 540L745.7 413L608 462Z" fill="#246688" stroke="#246688"></path><path d="M837.3 276L777.7 277L841.3 345Z" fill="#112e42" stroke="#112e42"></path><path d="M744.7 356L777.7 277L623 270Z" fill="#205a7a" stroke="#205a7a"></path><path d="M708.7 185L751.7 90L637 55Z" fill="#112e42" stroke="#112e42"></path><path d="M120.7 485L109.7 540L214.3 540Z" fill="#246688" stroke="#246688"></path><path d="M0 540L109.7 540L120.7 485Z" fill="#205a7a" stroke="#205a7a"></path><path d="M66.7 165L0 303L132.7 280Z" fill="#081a28" stroke="#081a28"></path><path d="M87.7 392L0 428L120.7 485Z" fill="#277297" stroke="#277297"></path><path d="M850.3 148L751.7 90L708.7 185Z" fill="#0c2435" stroke="#0c2435"></path><path d="M637 55L771.7 0L600 0Z" fill="#15384f" stroke="#15384f"></path><path d="M183.3 0L100.7 0L133.7 125Z" fill="#112e42" stroke="#112e42"></path><path d="M66.7 165L0 153L0 303Z" fill="#00101c" stroke="#00101c"></path><path d="M0 303L0 386L87.7 392Z" fill="#277297" stroke="#277297"></path><path d="M0 112L0 153L66.7 165Z" fill="#112e42" stroke="#112e42"></path><path d="M0 386L0 428L87.7 392Z" fill="#112e42" stroke="#112e42"></path><path d="M100.7 0L0 112L133.7 125Z" fill="#112e42" stroke="#112e42"></path><path d="M841.3 345L777.7 277L744.7 356Z" fill="#297ea6" stroke="#297ea6"></path><path d="M777.7 277L850.3 148L708.7 185Z" fill="#00101c" stroke="#00101c"></path><path d="M745.7 413L841.3 345L744.7 356Z" fill="#205a7a" stroke="#205a7a"></path><path d="M844.3 459L841.3 345L745.7 413Z" fill="#112e42" stroke="#112e42"></path><path d="M828.3 0L771.7 0L751.7 90Z" fill="#205a7a" stroke="#205a7a"></path><path d="M751.7 90L771.7 0L637 55Z" fill="#19435d" stroke="#19435d"></path><path d="M876.3 83L850.3 148L960 103Z" fill="#246688" stroke="#246688"></path><path d="M837.3 276L850.3 148L777.7 277Z" fill="#112e42" stroke="#112e42"></path><path d="M647 540L783.7 540L745.7 413Z" fill="#246688" stroke="#246688"></path><path d="M0 428L0 540L120.7 485Z" fill="#112e42" stroke="#112e42"></path><path d="M100.7 0L0 0L0 112Z" fill="#246688" stroke="#246688"></path><path d="M783.7 540L844.3 459L745.7 413Z" fill="#0c2435" stroke="#0c2435"></path><path d="M960 165L850.3 148L837.3 276Z" fill="#081a28" stroke="#081a28"></path><path d="M783.7 540L817.3 540L844.3 459Z" fill="#15384f" stroke="#15384f"></path><path d="M876.3 83L828.3 0L751.7 90Z" fill="#297ea6" stroke="#297ea6"></path><path d="M850.3 148L876.3 83L751.7 90Z" fill="#00101c" stroke="#00101c"></path><path d="M960 287L837.3 276L841.3 345Z" fill="#00101c" stroke="#00101c"></path><path d="M960 358L841.3 345L960 431Z" fill="#297ea6" stroke="#297ea6"></path><path d="M960 358L960 287L841.3 345Z" fill="#081a28" stroke="#081a28"></path><path d="M960 431L841.3 345L844.3 459Z" fill="#081a28" stroke="#081a28"></path><path d="M960 287L960 165L837.3 276Z" fill="#00101c" stroke="#00101c"></path><path d="M876.3 83L960 0L828.3 0Z" fill="#00101c" stroke="#00101c"></path><path d="M960 540L960 431L844.3 459Z" fill="#00101c" stroke="#00101c"></path><path d="M960 165L960 103L850.3 148Z" fill="#0c2435" stroke="#0c2435"></path><path d="M817.3 540L960 540L844.3 459Z" fill="#246688" stroke="#246688"></path><path d="M960 103L960 0L876.3 83Z" fill="#19435d" stroke="#19435d"></path></g></svg>